<?xml version="1.0" encoding="UTF-8"?>
<svg width="1200pt" height="1200pt" version="1.1" viewBox="0 0 1200 1200" xmlns="http://www.w3.org/2000/svg">
 <path d="m1003.1 512.25-562.5 637.5c-7.0977 8.1094-17.352 12.758-28.125 12.75-5.9844-0.074219-11.879-1.4844-17.25-4.125-7.3672-3.8203-13.246-9.9883-16.711-17.527-3.4648-7.5391-4.3125-16.02-2.4141-24.098l101.62-441.75h-252.75c-7.3086-0.023438-14.453-2.1602-20.574-6.1523-6.1211-3.9922-10.957-9.668-13.926-16.348-2.8945-6.7109-3.7617-14.121-2.4961-21.316 1.2656-7.1953 4.6094-13.863 9.6211-19.184l525-562.5c7.3984-7.9492 17.891-12.285 28.742-11.887 10.852 0.40234 20.992 5.5039 27.785 13.977 6.793 8.4727 9.5664 19.48 7.5977 30.16l-66.75 368.25h255c9.6562 0.023438 18.93 3.7695 25.895 10.457 6.9648 6.6875 11.086 15.801 11.5 25.449 0.41406 9.6484-2.9062 19.082-9.2695 26.344z" fill="#f1c131"/>
</svg>
