<?xml version="1.0" encoding="UTF-8"?>
<svg width="1200pt" height="1200pt" version="1.1" viewBox="0 0 1200 1200" xmlns="http://www.w3.org/2000/svg">
 <path d="m592.09 60.988c-5.7695-7.3867-15.23-10.387-24.23-7.8477s-15.461 10.152-16.613 19.387c-0.23047 2.0742-28.617 208.61-258.46 530.77-73.617 103.15-87.691 234.23-37.848 350.54 41.598 97.059 123.04 167.37 222.3 193.91-49.906-27.496-87.547-80.066-88.688-167.37-0.23047-2.6211-8.5391-110.34 86.77-260.24 3.4609-5.4805 8.7695-9.293 15-10.484 6-1.1914 12.461 0.23828 17.539 4.0508 2.3086 1.668 44.77 33.125 66.23 90.559 28.848-50.285 65.309-137.27 36-222.11-3.4609-10.008 0-21.211 8.5391-27.406 8.5391-6.1953 19.848-5.7188 27.922 0.95312 2.5391 2.1445 246.92 212.58 136.62 465.91-1.3789 3.7383-32.141 81.734-103.74 123.79 169.79-46.391 295.05-201.53 295.05-385.87-0.003907-213.92-366.7-678.92-382.39-698.54z" fill="#f1c131"/>
</svg>
