<?xml version="1.0" encoding="UTF-8"?>
<svg width="1200pt" height="1200pt" version="1.1" viewBox="0 0 1200 1200" xmlns="http://www.w3.org/2000/svg">
 <g fill="#f1c131">
  <path d="m403.2 598.8 36-3.6016c13.199-1.1992 25.199 4.8008 33.602 14.398l48 67.199c30-36 58.801-73.199 87.602-110.4l-32.402-38.398c-8.3984-9.6016-10.801-24-6-36l13.199-34.801c20.398-55.199 10.801-116.4-25.199-163.2l-192-247.2c-15.602-20.398-44.398-22.801-64.801-6-18 15.602-19.199 44.398-4.8008 62.398l158.4 204c10.801 14.398 7.1992 34.801-8.3984 44.398-13.199 8.3984-31.199 3.6016-42-8.3984l-157.2-204c-15.602-20.398-44.398-22.801-64.801-6-18 15.602-19.199 44.398-4.8008 62.398l158.4 204c10.801 14.398 7.1992 34.801-8.3984 44.398-13.199 8.3984-31.199 3.6016-42-8.3984l-156-201.6c-14.398-19.199-42-25.199-62.398-10.801-21.602 14.398-25.199 44.398-9.6016 63.602l193.2 247.2c36 46.801 93.598 70.801 152.4 64.801z"/>
  <path d="m771.6 758.4c-27.602 38.398-60 86.398-94.801 135.6l178.8 249.6c19.199 27.602 57.602 32.398 84 12l54-42c26.398-20.398 30-58.801 8.3984-84z"/>
  <path d="m1114.8 87.602c-10.801-27.602-48-33.602-66-9.6016l-356.4 464.4c-110.4 144-210 264-330 399.6l-68.398 84c-21.602 26.398-16.801 66 10.801 87.602l54 40.801c28.801 21.602 68.398 14.398 88.801-14.398 76.801-115.2 258-381.6 328.8-476.4l84 55.199c33.602 19.199 75.602 8.3984 96-24 40.801-67.199 115.2-205.2 169.2-310.8 50.398-97.203 16.797-223.2-10.801-296.4z"/>
 </g>
</svg>
