<?xml version="1.0" encoding="UTF-8" standalone="no"?>
<svg
   xmlns:dc="http://purl.org/dc/elements/1.1/"
   xmlns:cc="http://creativecommons.org/ns#"
   xmlns:rdf="http://www.w3.org/1999/02/22-rdf-syntax-ns#"
   xmlns:svg="http://www.w3.org/2000/svg"
   xmlns="http://www.w3.org/2000/svg"
   xmlns:sodipodi="http://sodipodi.sourceforge.net/DTD/sodipodi-0.dtd"
   xmlns:inkscape="http://www.inkscape.org/namespaces/inkscape"
   width="8mm"
   height="8mm"
   viewBox="0 0 8 8"
   version="1.1"
   id="svg3695"
   inkscape:version="1.0.2 (e86c8708, 2021-01-15)"
   sodipodi:docname="leaf_white.svg">
  <defs
     id="defs3689" />
  <sodipodi:namedview
     id="base"
     pagecolor="#ffffff"
     bordercolor="#666666"
     borderopacity="1.0"
     inkscape:pageopacity="0.0"
     inkscape:pageshadow="2"
     inkscape:zoom="2.8"
     inkscape:cx="33.463745"
     inkscape:cy="78.819831"
     inkscape:document-units="mm"
     inkscape:current-layer="layer1"
     inkscape:document-rotation="0"
     showgrid="false"
     inkscape:window-width="1252"
     inkscape:window-height="941"
     inkscape:window-x="0"
     inkscape:window-y="25"
     inkscape:window-maximized="0" />
  <metadata
     id="metadata3692">
    <rdf:RDF>
      <cc:Work
         rdf:about="">
        <dc:format>image/svg+xml</dc:format>
        <dc:type
           rdf:resource="http://purl.org/dc/dcmitype/StillImage" />
        <dc:title></dc:title>
      </cc:Work>
    </rdf:RDF>
  </metadata>
  <g
     inkscape:label="Layer 1"
     inkscape:groupmode="layer"
     id="layer1">
    <path
       d="m 1.7792222,6.5074676 h 1.534147 c 0.112096,0 0.202967,-0.0907 0.202967,-0.2031 0,-0.11201 -0.09087,-0.2031 -0.202967,-0.2031 h -1.128201 l 0.842462,-0.84242 h 1.534152 c 0.112095,0 0.202966,-0.0911 0.202966,-0.20309 0,-0.11201 -0.09087,-0.2031 -0.202966,-0.2031 h -1.128206 l 0.842457,-0.84246 h 1.534152 c 0.112096,0 0.202967,-0.0907 0.202967,-0.2031 0,-0.11201 -0.09087,-0.2031 -0.202967,-0.2031 h -1.128206 l 1.087608,-1.08766 c 0.07928,-0.0789 0.07928,-0.20789 0,-0.28677 -0.07923,-0.0793 -0.207717,-0.0793 -0.287038,0 l -1.087608,1.08766 v -1.1282 c 0,-0.112 -0.09091,-0.20309 -0.202967,-0.20309 -0.112095,0 -0.202966,0.0906 -0.202966,0.20309 v 1.53413 l -0.842501,0.84246 v -1.12832 c 0,-0.11201 -0.09087,-0.2031 -0.202967,-0.2031 -0.112052,0 -0.202966,0.0911 -0.202966,0.2031 v 1.53417 l -0.842466,0.84242 v -1.1282 c 0,-0.11201 -0.09091,-0.20309 -0.202967,-0.20309 -0.112096,0 -0.202966,0.0907 -0.202966,0.20309 v 1.53417 l -0.67763897,0.67763 c -1.130477,-1.27912 -1.084252,-3.24018 0.138899,-4.46343 0.50641397,-0.50644 1.18341197,-0.94959 2.01197497,-1.31713 0.656323,-0.29112998 1.409657,-0.53615998 2.239201,-0.72830998 1.408471,-0.32644 2.53483,-0.38702 2.58203,-0.38920000426 0.0573,-0.002999996 0.11327,0.0218000043 0.15389,0.0593000043 0.0405,0.0392 0.0621,0.0968 0.0592,0.15385 -0.003,0.0471 -0.0629,1.17351998 -0.38928,2.58198998 -0.19221,0.82957 -0.437282,1.5829 -0.728334,2.23922 -0.367493,0.82864 -0.810668,1.50558 -1.317104,2.01197 -0.615899,0.61592 -1.434774,0.95508 -2.305773,0.95508 -0.803015,0 -1.56154,-0.28852 -2.157683,-0.81609 z"
       fill="#f1c131"
       id="path1362-2-7-5"
       style="fill:#ffffff;fill-opacity:1;stroke-width:0.0111329;stroke-miterlimit:4;stroke-dasharray:none" />
  </g>
</svg>
