<?xml version="1.0" encoding="UTF-8"?>
<svg width="1200pt" height="1200pt" version="1.1" viewBox="0 0 1200 1200" xmlns="http://www.w3.org/2000/svg">
 <path d="m870 363.24c0.42188-8.9531-2.9531-17.625-9.2812-23.953s-15-9.7031-23.953-9.2812c-47.578 2.2031-92.109 23.906-123.14 60l-25.078 30-265.55-61.219c-10.641-2.5312-21.797 0.65625-29.531 8.4375l-19.078 19.078c-1.7812 1.6406-2.625 4.0781-2.2969 6.4688 0.375 2.3906 1.9219 4.4531 4.125 5.5312l230.02 117.7-134.53 157.78-91.453-36h0.046875c-11.719-4.6406-25.078-1.9219-33.984 6.9844l-14.297 14.297h0.046875c-1.7344 1.6875-2.5312 4.0781-2.1562 6.4688s1.875 4.4531 4.0312 5.5312l128.86 66.234 66.234 128.86h0.046874c1.0781 2.1562 3.1406 3.7031 5.4844 4.0781 2.3906 0.375 4.8281-0.42188 6.5156-2.1562l14.297-14.297c8.8594-8.9062 11.625-22.266 6.9375-33.938l-36-91.453 157.69-134.63 118.31 230.06v-0.046874c1.0312 2.2031 3.1406 3.75 5.5312 4.125 2.3906 0.32812 4.8281-0.51563 6.4688-2.2969l19.078-19.078c7.7812-7.7344 10.969-18.891 8.3906-29.531l-61.781-265.55 29.391-25.078c36.328-30.938 58.266-75.469 60.609-123.14z" fill="#f1c131"/>
</svg>
