<?xml version="1.0" encoding="UTF-8"?>
<svg width="1200pt" height="1200pt" version="1.1" viewBox="0 0 1200 1200" xmlns="http://www.w3.org/2000/svg">
 <path d="m557.26 267.5c-3.4141 0.35156-6.6016 1.8516-9.0508 4.2539-2.4453 2.4023-4 5.5664-4.4141 8.9727l-7.3203 55.969c-27.832 6.6914-53.945 17.578-77.695 32.117l-44.871-34.48c-2.918-2.2031-6.5352-3.2734-10.184-3.0117-3.6484 0.26172-7.0781 1.8359-9.6523 4.4297l-29.285 29.047-29.047 29.285c-2.5977 2.5742-4.1719 6.0039-4.4297 9.6523-0.26172 3.6484 0.80859 7.2656 3.0117 10.184l34.48 44.871c-14.484 23.719-25.41 49.855-32.117 77.695l-55.973 7.3242c-3.6328 0.45703-6.9727 2.2188-9.4062 4.9531-2.4336 2.7383-3.7891 6.2617-3.8164 9.9258v82.656-0.003906c0.027344 3.6641 1.3828 7.1875 3.8164 9.9258 2.4336 2.7344 5.7734 4.4961 9.4062 4.9531l55.969 7.3203c6.6914 27.836 17.578 53.941 32.117 77.695l-34.48 44.871 0.003906 0.003907c-2.2031 2.918-3.2734 6.5352-3.0117 10.184 0.25781 3.6484 1.832 7.0781 4.4297 9.6523l29.047 29.047h0.23438l29.047 29.285c2.5781 2.5977 6.0078 4.1719 9.6562 4.4297 3.6445 0.26172 7.2656-0.80859 10.184-3.0117l44.871-34.48c23.742 14.543 49.852 25.414 77.695 32.117l7.3203 55.969v0.003906c0.45703 3.6328 2.2188 6.9727 4.9531 9.4062 2.7383 2.4336 6.2656 3.7891 9.9258 3.8164h82.656c3.6602-0.027344 7.1875-1.3828 9.9219-3.8164 2.7383-2.4336 4.4961-5.7734 4.957-9.4062l7.3242-55.969c27.844-6.707 53.957-17.574 77.695-32.117l44.871 34.48v-0.003906c2.918 2.2031 6.5352 3.2734 10.184 3.0117 3.6484-0.25781 7.0781-1.832 9.6523-4.4297l29.047-29.285 29.285-29.047c2.5938-2.5742 4.168-6.0039 4.4297-9.6523 0.26172-3.6484-0.80859-7.2656-3.0117-10.184l-34.48-44.871c14.539-23.754 25.426-49.863 32.117-77.695l55.969-7.3203v-0.003906c3.6328-0.45703 6.9766-2.2188 9.4102-4.9531 2.4297-2.7383 3.7891-6.2617 3.8164-9.9258v-82.656 0.003906c-0.027344-3.6641-1.3867-7.1875-3.8164-9.9258-2.4336-2.7344-5.7773-4.4961-9.4102-4.9531l-55.969-7.3203c-6.6914-27.781-17.582-53.945-32.117-77.695l34.48-44.871v-0.003907c2.2031-2.918 3.2734-6.5352 3.0117-10.184-0.26172-3.6484-1.8359-7.0781-4.4297-9.6523l-58.332-58.332c-2.5742-2.5977-6.0039-4.168-9.6523-4.4297-3.6484-0.26172-7.2656 0.80859-10.184 3.0117l-44.871 34.48c-23.754-14.539-49.863-25.426-77.695-32.117l-7.3203-55.969-0.003907-0.003906c-0.45703-3.6289-2.2188-6.9727-4.9531-9.4062-2.7383-2.4297-6.2617-3.7891-9.9258-3.8164h-82.656c-0.47266-0.023438-0.94531-0.023438-1.4141 0zm42.746 181.37c83.285 0 151.14 67.855 151.14 151.14 0 83.289-67.855 151.14-151.14 151.14-83.355 0-151.14-67.863-151.14-151.14 0-83.277 67.785-151.14 151.14-151.14z" fill="#f1c131" fill-rule="evenodd"/>
</svg>
