<?xml version="1.0" encoding="UTF-8"?>
<svg width="1200pt" height="1200pt" version="1.1" viewBox="0 0 1200 1200" xmlns="http://www.w3.org/2000/svg">
 <path d="m600 88.172c-110.48 0-200.02 89.531-200.02 200.02v39.844h-126.66c-13.125 0-24.047 10.172-24.938 23.297l-46.547 671.95c-0.98438 14.438 10.453 26.719 24.938 26.719h746.44c14.484 0 25.922-12.281 24.938-26.719l-46.547-671.95c-0.9375-13.125-11.812-23.297-24.938-23.297h-126.71v-39.844c0-110.48-89.531-200.02-199.97-200.02zm99.984 239.86v-39.844c0-55.219-44.766-99.984-99.984-99.984s-100.03 44.766-100.03 99.984v39.844z" fill="#f1c131" fill-rule="evenodd"/>
</svg>
